<svg xmlns="http://www.w3.org/2000/svg" width="26.455" height="28.592" viewBox="0 0 26.455 28.592">
  <path id="Intersection_1" data-name="Intersection 1" d="M9.416,28.223c0-.449-.016-1.643-.023-3.223-5.369,1.142-6.5-2.546-6.5-2.546A5.049,5.049,0,0,0,.743,19.681C-1,18.505.879,18.529.879,18.529a4.037,4.037,0,0,1,2.955,1.955,4.158,4.158,0,0,0,5.622,1.577,4.028,4.028,0,0,1,1.223-2.538c-4.286-.472-8.792-2.1-8.792-9.371A7.243,7.243,0,0,1,3.874,5.064,6.634,6.634,0,0,1,4.042.043S5.658-.463,9.351,1.988a18.5,18.5,0,0,1,9.649,0C22.666-.463,24.282.043,24.282.043a6.824,6.824,0,0,1,.194,5.02,7.271,7.271,0,0,1,1.979,5.088c0,7.285-4.511,8.888-8.807,9.355a4.492,4.492,0,0,1,1.3,3.509c0,2.54-.025,4.579-.025,5.193,0,.253-2.453.383-4.867.383C11.72,28.592,9.416,28.471,9.416,28.223Z" fill="#8e919c"/>
</svg>
