<svg id="linkedin" xmlns="http://www.w3.org/2000/svg" width="25.734" height="24.598" viewBox="0 0 25.734 24.598">
  <path id="Path_11" data-name="Path 11" d="M3.121-.668a2.875,2.875,0,1,0-.072,5.735h.036A2.876,2.876,0,1,0,3.121-.668Zm0,0" transform="translate(0 0.668)" fill="#008bf8"/>
  <path id="Path_12" data-name="Path 12" d="M8.109,198.313h5.517v16.6H8.109Zm0,0" transform="translate(-7.783 -190.312)" fill="#008bf8"/>
  <path id="Path_13" data-name="Path 13" d="M231.7,188.625c-2.976,0-4.972,2.8-4.972,2.8v-2.407h-5.517v16.6h5.516v-9.268a3.782,3.782,0,0,1,.182-1.346,3.02,3.02,0,0,1,2.83-2.017c2,0,2.795,1.522,2.795,3.753v8.879h5.516v-9.516C238.054,191,235.332,188.625,231.7,188.625Zm0,0" transform="translate(-212.32 -181.014)" fill="#008bf8"/>
</svg>
