<svg xmlns="http://www.w3.org/2000/svg" width="32.593" height="32.705" viewBox="0 0 32.593 32.705">
  <g id="internet" transform="translate(-0.881)">
    <path id="Path_63" data-name="Path 63" d="M165.2,272H152.589a.319.319,0,0,0-.319.327c.038,1.478.138,2.891.291,4.226a.319.319,0,0,0,.395.274,24.236,24.236,0,0,1,11.881,0,.319.319,0,0,0,.395-.274c.152-1.336.253-2.748.291-4.226A.319.319,0,0,0,165.2,272Z" transform="translate(-141.718 -254.625)" fill="#a8aab1"/>
    <path id="Path_64" data-name="Path 64" d="M165.231,164.554a.319.319,0,0,0-.395-.274,24.234,24.234,0,0,1-11.881,0,.319.319,0,0,0-.395.274c-.152,1.336-.253,2.748-.291,4.226a.319.319,0,0,0,.319.327H165.2a.319.319,0,0,0,.319-.327C165.483,167.3,165.383,165.889,165.231,164.554Z" transform="translate(-141.718 -153.777)" fill="#a8aab1"/>
    <path id="Path_65" data-name="Path 65" d="M174.808,8.082a25.524,25.524,0,0,0-2.462-7.6.318.318,0,0,0-.216-.158,16.551,16.551,0,0,0-6.525,0,.318.318,0,0,0-.216.158,25.523,25.523,0,0,0-2.462,7.6.318.318,0,0,0,.229.364,21.931,21.931,0,0,0,5.711.753,21.928,21.928,0,0,0,5.711-.753A.318.318,0,0,0,174.808,8.082Z" transform="translate(-151.691)" fill="#a8aab1"/>
    <path id="Path_66" data-name="Path 66" d="M355.8,22.6a.319.319,0,0,0-.428.408l.005.014a31.846,31.846,0,0,1,1.5,5.436.32.32,0,0,0,.436.235,21.941,21.941,0,0,0,3.585-1.875.32.32,0,0,0,.062-.487q-.195-.209-.4-.412A16.346,16.346,0,0,0,355.8,22.6Z" transform="translate(-331.828 -21.127)" fill="#a8aab1"/>
    <path id="Path_67" data-name="Path 67" d="M386.627,121.217h6.987a.32.32,0,0,0,.319-.347,16.192,16.192,0,0,0-2.626-7.614.321.321,0,0,0-.445-.091,23.935,23.935,0,0,1-3.875,2.076q-.418.177-.842.337a.32.32,0,0,0-.2.339c.2,1.6.326,3.276.368,4.988A.319.319,0,0,0,386.627,121.217Z" transform="translate(-360.461 -105.887)" fill="#a8aab1"/>
    <path id="Path_68" data-name="Path 68" d="M162.927,369.117a25.524,25.524,0,0,0,2.462,7.6.318.318,0,0,0,.216.158,16.551,16.551,0,0,0,6.525,0,.318.318,0,0,0,.216-.158,25.523,25.523,0,0,0,2.462-7.6.318.318,0,0,0-.229-.364,22.041,22.041,0,0,0-11.422,0A.318.318,0,0,0,162.927,369.117Z" transform="translate(-151.691 -344.493)" fill="#a8aab1"/>
    <path id="Path_69" data-name="Path 69" d="M7.828,277.977q.419-.177.842-.337a.319.319,0,0,0,.2-.339c-.2-1.6-.326-3.276-.368-4.988A.319.319,0,0,0,8.187,272H1.2a.32.32,0,0,0-.319.347,16.193,16.193,0,0,0,2.626,7.614.321.321,0,0,0,.445.091,23.932,23.932,0,0,1,3.874-2.076Z" transform="translate(0 -254.626)" fill="#a8aab1"/>
    <path id="Path_70" data-name="Path 70" d="M360.9,395.11a21.936,21.936,0,0,0-3.585-1.875.32.32,0,0,0-.436.235,31.841,31.841,0,0,1-1.5,5.436l-.005.014a.319.319,0,0,0,.428.408,16.347,16.347,0,0,0,4.766-3.318q.2-.2.4-.412A.32.32,0,0,0,360.9,395.11Z" transform="translate(-331.829 -368.093)" fill="#a8aab1"/>
    <path id="Path_71" data-name="Path 71" d="M386.308,272.311c-.043,1.712-.167,3.384-.368,4.988a.319.319,0,0,0,.2.339q.423.16.842.337a23.943,23.943,0,0,1,3.874,2.076.321.321,0,0,0,.445-.091,16.193,16.193,0,0,0,2.626-7.614.32.32,0,0,0-.319-.347h-6.987A.319.319,0,0,0,386.308,272.311Z" transform="translate(-360.461 -254.624)" fill="#a8aab1"/>
    <path id="Path_72" data-name="Path 72" d="M67.568,26.814a21.936,21.936,0,0,0,3.585,1.875.32.32,0,0,0,.436-.235,31.842,31.842,0,0,1,1.5-5.436L73.1,23a.319.319,0,0,0-.428-.408A16.351,16.351,0,0,0,67.9,25.915q-.2.2-.4.412A.32.32,0,0,0,67.568,26.814Z" transform="translate(-62.29 -21.126)" fill="#a8aab1"/>
    <path id="Path_73" data-name="Path 73" d="M8.5,121.218a50.42,50.42,0,0,1,.375-5.3.319.319,0,0,0-.2-.339q-.423-.16-.842-.337a23.946,23.946,0,0,1-3.874-2.076.321.321,0,0,0-.445.091,16.193,16.193,0,0,0-2.626,7.614.32.32,0,0,0,.319.347Z" transform="translate(0 -105.887)" fill="#a8aab1"/>
    <path id="Path_74" data-name="Path 74" d="M72.67,399.326a.319.319,0,0,0,.428-.408l-.005-.014a31.849,31.849,0,0,1-1.5-5.436.32.32,0,0,0-.436-.235,21.941,21.941,0,0,0-3.585,1.875.32.32,0,0,0-.062.487q.195.209.4.412A16.346,16.346,0,0,0,72.67,399.326Z" transform="translate(-62.291 -368.092)" fill="#a8aab1"/>
  </g>
</svg>
