<svg xmlns="http://www.w3.org/2000/svg" width="34.643" height="34.643" viewBox="0 0 34.643 34.643">
  <path id="settings_copy" data-name="settings copy" d="M31.453,13.045h-.735a13.989,13.989,0,0,0-.9-2.172l.521-.521a3.189,3.189,0,0,0,0-4.511L28.8,4.305a3.189,3.189,0,0,0-4.511,0l-.521.521a14,14,0,0,0-2.172-.9V3.189A3.193,3.193,0,0,0,18.408,0H16.234a3.193,3.193,0,0,0-3.189,3.189v.736a13.985,13.985,0,0,0-2.172.9l-.521-.521a3.189,3.189,0,0,0-4.511,0L4.305,5.842a3.189,3.189,0,0,0,0,4.511l.521.521a13.987,13.987,0,0,0-.9,2.172H3.189A3.193,3.193,0,0,0,0,16.234v2.174A3.193,3.193,0,0,0,3.189,21.6h.735a13.989,13.989,0,0,0,.9,2.172l-.521.521a3.189,3.189,0,0,0,0,4.511l1.537,1.537a3.189,3.189,0,0,0,4.511,0l.521-.521a14,14,0,0,0,2.172.9v.736a3.193,3.193,0,0,0,3.189,3.189h2.174A3.193,3.193,0,0,0,21.6,31.454v-.736a13.985,13.985,0,0,0,2.172-.9l.521.521a3.189,3.189,0,0,0,4.511,0L30.337,28.8a3.189,3.189,0,0,0,0-4.511l-.521-.521a13.986,13.986,0,0,0,.9-2.172h.735a3.193,3.193,0,0,0,3.189-3.189V16.234a3.193,3.193,0,0,0-3.189-3.189ZM17.321,24.859a7.537,7.537,0,1,1,7.537-7.537A7.546,7.546,0,0,1,17.321,24.859Z" fill="#a8aab1"/>
</svg>
