<svg xmlns="http://www.w3.org/2000/svg" width="24.947" height="26.987" viewBox="0 0 24.947 26.987">
  <path id="Path_10" data-name="Path 10" d="M-6499.35,3.987a2.628,2.628,0,0,1-1.03-.208,2.656,2.656,0,0,1-.844-.568,2.668,2.668,0,0,1-.568-.843A2.66,2.66,0,0,1-6502,1.336V-14.639a2.66,2.66,0,0,1,.207-1.032,2.669,2.669,0,0,1,.568-.843,2.657,2.657,0,0,1,.844-.568,2.63,2.63,0,0,1,1.03-.208h1.292V-2.335a2.628,2.628,0,0,0,.209,1.032,2.622,2.622,0,0,0,.568.843,2.638,2.638,0,0,0,.842.568,2.65,2.65,0,0,0,1.032.208h13.188a2.675,2.675,0,0,0,.406-.031V1.336a2.659,2.659,0,0,1-.206,1.032,2.685,2.685,0,0,1-.568.843,2.656,2.656,0,0,1-.844.568,2.633,2.633,0,0,1-1.031.208Zm6.459-5.71a2.651,2.651,0,0,1-2.651-2.651V-20.349A2.651,2.651,0,0,1-6492.891-23h13.187a2.651,2.651,0,0,1,2.652,2.651V-4.375a2.651,2.651,0,0,1-2.652,2.651Z" transform="translate(6502 23)" fill="#008bf8"/>
</svg>
