<svg xmlns="http://www.w3.org/2000/svg" width="388" height="388" viewBox="0 0 388 388">
  <g id="Group_16" data-name="Group 16" transform="translate(-1293 -272)">
    <rect id="Rectangle_248" data-name="Rectangle 248" width="388" height="388" transform="translate(1293 272)" fill="none"/>
    <path id="Intersection_2" data-name="Intersection 2" d="M385,388l3-8.715V388Zm-14.655,0L388,336.723v9.931L373.763,388Zm-14.656,0L388,294.16v9.932L359.108,388Zm-14.656,0L388,251.6v9.932L344.452,388Zm-14.656,0L388,209.033v9.932L329.8,388Zm-14.655,0L388,166.472v9.93L315.141,388Zm-14.656,0L388,123.908v9.932L300.486,388Zm-14.655,0L388,81.347v9.93L285.83,388Zm-14.656,0L388,38.783v9.931L271.174,388ZM253.1,388,386.7,0H388V6.15L256.518,388Zm-14.655,0L372.043,0h3.419l-133.6,388Zm-14.655,0L357.387,0h3.419l-133.6,388Zm-14.656,0L342.732,0h3.419l-133.6,388Zm-14.656,0L328.076,0h3.42L197.9,388Zm-14.655,0L313.42,0h3.419L183.24,388Zm-14.656,0L298.764,0h3.42l-133.6,388Zm-14.655,0L284.11,0h3.419L153.93,388Zm-14.657,0L269.453,0h3.42l-133.6,388ZM121.2,388,254.8,0h3.419l-133.6,388Zm-14.656,0L240.142,0h3.42l-133.6,388Zm-14.655,0L225.486,0h3.42L95.307,388Zm-14.656,0L210.831,0h3.419L80.651,388Zm-14.656,0L196.175,0h3.42L66,388Zm-14.655,0L181.52,0h3.419L51.34,388Zm-14.656,0L166.865,0h3.42L36.685,388Zm-14.656,0L152.208,0h3.42L22.029,388ZM3.953,388,137.553,0h3.42L7.373,388ZM0,356.922,122.9,0h3.419L0,366.851Zm0-42.564L108.242,0h3.42L0,324.29Zm0-42.563L93.586,0h3.42L0,281.725Zm0-42.563L78.931,0H82.35L0,239.161Zm0-42.564L64.274,0h3.42L0,196.6ZM0,144.1,49.619,0h3.42L0,154.035Zm0-42.563L34.963,0h3.419L0,111.472ZM0,58.98,20.308,0h3.419L0,68.909ZM0,16.416,5.652,0h3.42L0,26.348Z" transform="translate(1293 272)" fill="#008bf8" opacity="0.492"/>
  </g>
</svg>
