<svg xmlns="http://www.w3.org/2000/svg" width="640" height="925" viewBox="0 0 640 925">
  <path id="Intersection_2" data-name="Intersection 2" d="M615.93,925,640,855.091v16.38L621.569,925Zm-24.176,0L640,784.876v16.383L597.395,925Zm-24.173,0L640,714.668v16.381L573.221,925Zm-24.174,0L640,644.458v16.383L549.047,925Zm-24.174,0L640,574.246V590.63L524.873,925Zm-24.174,0L640,504.036v16.383L500.7,925Zm-24.174,0L640,433.827v16.38L476.524,925Zm-24.174,0L640,363.616V380L452.35,925Zm-24.172,0L640,293.408v16.38L428.176,925Zm-24.175,0L640,223.2v16.381L404,925Zm-24.176,0L640,152.983v16.383L379.827,925Zm-24.173,0L640,82.775v16.38L355.653,925Zm-24.174,0L640,12.565V28.946L331.479,925Zm-24.175,0L620.152,0h5.64L307.305,925Zm-24.175,0L595.977,0h5.641L283.131,925Zm-24.174,0L571.8,0h5.64L258.956,925Zm-24.175,0L547.628,0h5.641L234.783,925Zm-24.172,0L523.456,0h5.64L210.608,925Zm-24.176,0L499.28,0h5.641L186.433,925Zm-24.173,0L475.107,0h5.64L162.26,925Zm-24.175,0L450.932,0h5.641L138.085,925Zm-24.174,0L426.758,0H432.4L113.912,925ZM84.1,925,402.584,0h5.64L89.737,925Zm-24.175,0L378.409,0h5.642L65.564,925Zm-24.173,0L354.236,0h5.64L41.389,925Zm-24.175,0L330.062,0H335.7L17.215,925ZM0,888.4,305.885,0h5.642L0,904.786Zm0-70.208L281.712,0h5.641L0,834.575Zm0-70.205L257.539,0h5.64L0,764.366Zm0-70.213L233.364,0h5.641L0,694.158Zm0-70.21L209.19,0h5.641L0,623.946Zm0-70.211L185.016,0h5.64L0,553.732ZM0,467.14,160.841,0h5.641L0,483.525Zm0-70.21L136.667,0h5.641L0,413.312Zm0-70.211L112.493,0h5.64L0,343.1Zm0-70.208L88.32,0h5.639L0,272.891ZM0,186.3,64.145,0h5.641L0,202.682Zm0-70.208L39.972,0h5.64L0,132.472ZM0,45.88,15.8,0h5.641L0,62.264Z" transform="translate(0 0)" fill="#6efda9"/>
</svg>
