<svg xmlns="http://www.w3.org/2000/svg" width="357" height="295" viewBox="0 0 357 295">
  <g id="Group_19" data-name="Group 19" transform="translate(-1146 -2387)">
    <path id="Subtraction_1" data-name="Subtraction 1" d="M289.008,295h-5.23L295,288.521v3.019L289.008,295ZM277.5,295h-5.231L295,281.876V284.9L277.5,295Zm-11.506,0h-5.23L295,275.232v3.019L265.993,295Zm-11.5,0h-5.236L295,268.59v3.021L254.489,295Zm-11.509,0h-5.232L295,261.944v3.022L242.98,295Zm-11.508,0h-5.229L295,255.3v3.018L231.472,295Zm-11.506,0h-5.229L295,248.66v3.019L219.965,295Zm-11.506,0h-5.231L295,242.015v3.021L208.459,295Zm-11.509,0h-5.23L295,235.371v3.02L196.95,295Zm-11.508,0h-5.229L295,228.729v3.019L185.442,295Zm-11.5,0h-5.233L295,222.083v3.022L173.938,295Zm-11.508,0H157.2L295,215.44v3.02L162.43,295Zm-11.509,0h-5.229L295,208.8v3.021L150.92,295Zm-11.5,0h-5.23L295,202.153v3.021L139.417,295Zm-11.508,0H122.68L295,195.511v3.019L127.908,295ZM116.4,295h-5.229L295,188.867v3.019L116.4,295Zm-11.506,0H99.665L295,182.222v3.021L104.894,295Zm-11.5,0H88.156L295,175.578V178.6L93.389,295Zm-11.506,0H76.647L295,168.936v3.021L81.882,295Zm-11.508,0h-5.23L295,162.292v3.02L70.374,295Zm-11.508,0H53.637L295,155.649v3.018L58.866,295Zm-11.507,0h-5.23L295,149v3.021L47.359,295Zm-11.508,0H30.62L295,142.36v3.019L35.851,295Zm-11.506,0h-5.23L295,135.717v3.02L24.344,295Zm-11.506,0H7.605L295,129.071v3.023L12.838,295ZM1.332,295H0v-2.253L295,122.429v3.021L1.332,295ZM0,289.125v0H0v-3.015L295,115.788v3.018Zm0-6.644v0l0,0v-3.014L295,109.143v3.021Zm0-6.643v0H0v-3.017L295,102.5v3.021Zm0-6.646v0H0v-3.015L295,95.856v3.019Zm0-6.644v0H0v-3.017l35.991-20.78a97.278,97.278,0,0,0,24.323-14.042L295,89.211v3.021Zm0-6.643v-3.021l14.438-8.335c2.619-.39,5.248-.891,7.813-1.49L0,255.905Zm0-6.644v-3.021l1.1-.637c1.873-.021,3.762-.1,5.616-.222L0,249.263Zm70.993-34.345v0c1.82-1.936,3.58-3.967,5.232-6.039L295,82.567v3.021Zm9.848-12.329v0h.005c1.047-1.553,2.06-3.153,3.011-4.757L295,75.924v3.021L80.842,202.59l.006,0-.006,0Zm5.947-10.079.005,0h0c.7-1.368,1.377-2.773,2.014-4.179L295,69.281V72.3L86.793,192.509Zm4.037-8.974v0l0,0c.492-1.264.962-2.55,1.4-3.822L295,62.638v3.02Zm2.793-8.256,0,0h0c.339-1.173.662-2.375.958-3.571L295,55.992v3.021L93.622,175.28Zm1.9-7.74,0,0h0c.226-1.121.434-2.257.618-3.373L295,49.35v3.019L95.518,167.54Zm1.188-7.329,0,0h0c.132-1.067.247-2.147.342-3.213L295,42.706v3.019L96.707,160.21Zm.612-6.993v0h0c.051-1.022.088-2.06.108-3.082L295,36.063v3.021Zm.114-6.71v0l0,0c-.018-.994-.05-1.992-.1-2.965L295,29.417V32.44Zm-.322-6.46,0,0h0c-.078-.948-.172-1.908-.278-2.855L295,22.776v3.019L97.11,140.048Zm-.716-6.229,0,0h0c-.135-.916-.286-1.844-.448-2.759L295,16.134v3.018L96.394,133.818ZM95.31,127.8v0h0c-.186-.871-.389-1.768-.606-2.665L295,9.488v3.019L95.311,127.8Zm-1.427-5.819v0h0c-.238-.856-.492-1.725-.756-2.579L295,2.845V5.863L93.884,121.979Zm-1.754-5.631v0h0c-.286-.83-.588-1.67-.9-2.5L288.42,0h5.229L92.13,116.349ZM90.061,110.9v0h0c-.327-.789-.676-1.6-1.04-2.417L276.912,0h5.232L90.062,110.9Zm-2.371-5.274v0h0c-.385-.789-.78-1.576-1.177-2.338L265.405,0h5.233L87.691,105.625Zm-2.67-5.1v0h0c-.426-.757-.866-1.518-1.31-2.261L253.9,0h5.229L85.021,100.523Zm-2.965-4.933v0h0c-.473-.736-.959-1.471-1.443-2.183L242.4,0h5.228L82.056,95.591Zm-3.26-4.762v0c-.52-.712-1.051-1.42-1.579-2.105L230.884,0h5.23L78.8,90.828Zm-3.558-4.591v0h0c-.561-.68-1.139-1.361-1.717-2.024L219.377,0h5.23Zm-3.864-4.412v0h0c-.6-.646-1.229-1.3-1.858-1.942L207.869,0h5.23ZM67.195,77.6v0h0c-.665-.632-1.34-1.257-2.009-1.858L196.362,0H201.6Zm-4.512-4.039h0c-.705-.594-1.414-1.173-2.167-1.771L184.856,0h5.231L62.683,73.559h0Zm-4.866-3.836h0c-.738-.545-1.523-1.107-2.333-1.67L173.35,0h5.229L57.817,69.723h0Zm-5.246-3.615h0c-.8-.515-1.648-1.041-2.519-1.563L161.844,0h5.229L52.572,66.107h0ZM46.9,62.734h0c-.885-.487-1.8-.974-2.726-1.444L150.334,0h5.229L46.9,62.734h0Zm-6.139-3.1h0c-.976-.449-1.972-.89-2.963-1.308L138.829,0h5.229L40.767,59.635h0Zm-6.681-2.783h0c-1.079-.4-2.172-.789-3.248-1.147L127.32,0h5.233L34.085,56.852h0Zm-7.334-2.41h0c-1.17-.333-2.378-.653-3.588-.949L115.814,0h5.232L26.75,54.441ZM18.608,52.5h0c-1.327-.258-2.684-.49-4.033-.692L104.3,0h5.233L18.608,52.5ZM9.4,51.172h0c-1.54-.148-3.105-.261-4.653-.335L92.8,0h5.231L9.4,51.172ZM0,49.955v0l0,0V46.935L81.294,0h5.229ZM0,43.31v0l0,0V40.292L69.786,0h5.229Zm0-6.643V33.646L58.278,0h5.23L0,36.666Zm0-6.644V27L46.769,0H52L0,30.022Zm0-6.643V20.359L35.263,0H40.5L0,23.379Zm0-6.644V13.717L23.758,0h5.231L0,16.735Zm0-6.646V7.073L12.252,0H17.48L0,10.091ZM0,3.448V.43L.746,0H5.975L0,3.447Z" transform="translate(1208 2387)" fill="#ffa114"/>
    <circle id="Ellipse_12" data-name="Ellipse 12" cx="61.5" cy="61.5" r="61.5" transform="translate(1146 2474)" fill="#ffa114"/>
  </g>
</svg>
