<svg xmlns="http://www.w3.org/2000/svg" width="327.001" height="295" viewBox="0 0 327.001 295">
  <g id="Group_32" data-name="Group 32" transform="translate(860.001 3053) rotate(180)">
    <path id="Intersection_7" data-name="Intersection 7" d="M283.776,295,295,288.52v3.02L289.006,295Zm-11.507,0L295,281.877V284.9L277.5,295Zm-11.507,0L295,275.233v3.019L265.991,295Zm-11.508,0L295,268.589v3.022L254.487,295Zm-11.507,0L295,261.945v3.021L242.98,295Zm-11.5,0L295,255.3v3.019L231.471,295Zm-11.507,0L295,248.659v3.019L219.964,295Zm-11.508,0L295,242.015v3.02L208.457,295Zm-11.507,0L295,235.371v3.019L196.948,295Zm-11.507,0L295,228.727v3.019L185.441,295ZM168.7,295,295,222.083V225.1L173.937,295ZM157.2,295,295,215.439v3.022L162.429,295Zm-11.5,0L295,208.8v3.019L150.921,295Zm-11.507,0L295,202.154v3.02L139.415,295Zm-11.508,0L295,195.51v3.02L127.907,295Zm-11.507,0L295,188.866v3.019L116.4,295Zm-11.508,0L295,182.222v3.019L104.892,295Zm-11.508,0L295,175.578V178.6L93.387,295Zm-11.507,0L295,168.934v3.021L81.881,295Zm-11.5,0L295,162.292v3.019L70.372,295Zm-11.507,0L295,155.648v3.019L58.865,295Zm-11.509,0L295,149v3.02L47.358,295ZM30.62,295,295,142.36v3.019L35.849,295Zm-11.507,0L295,135.716v3.02L24.342,295ZM7.6,295,295,129.072v3.021L12.837,295ZM0,295v-2.253L295,122.429v3.021L1.33,295Zm0-8.895L295,115.787v3.019L0,289.125Zm0-6.644L295,109.143v3.019L0,282.481Zm0-6.644L295,102.5v3.02L0,275.837Zm0-6.644L295,95.855v3.019L0,269.193Zm0-6.644L295,89.211v3.019L0,262.549Zm0-6.644L295,82.567v3.021L0,255.907Zm0-6.644L295,75.923v3.021L0,249.263ZM0,239.6,295,69.281V72.3L0,242.619Zm0-6.644L295,62.638v3.019L0,235.975Zm0-6.645L295,55.993v3.02L0,229.332Zm0-6.643L295,49.35v3.019L0,222.687Zm0-6.644L295,42.706v3.019L0,216.044Zm0-6.644L295,36.062v3.021L0,209.4Zm0-6.644L295,29.418v3.021L0,202.758Zm0-6.642L295,22.776v3.019L0,196.114Zm0-6.644L295,16.132v3.019L0,189.47Zm0-6.644L295,9.488v3.019L0,182.826Zm0-6.644L295,2.844v3.02L0,176.182Zm0-6.643L288.419,0h5.229L0,169.538Zm0-6.644L276.911,0h5.234L0,162.9Zm0-6.644L265.4,0h5.234L0,156.252Zm0-6.642L253.9,0h5.229L0,149.608Zm0-6.644L242.392,0h5.229L0,142.965ZM0,133.3,230.884,0h5.23L0,136.32Zm0-6.643L219.377,0h5.229L0,129.676Zm0-6.645L207.868,0h5.23L0,123.033Zm0-6.644L196.361,0h5.233L0,116.391Zm0-6.643L184.854,0h5.233L0,109.747Zm0-6.642L173.349,0h5.229L0,103.1ZM0,93.44,161.842,0h5.23L0,96.459ZM0,86.8,150.335,0h5.229L0,89.815Zm0-6.644L138.827,0h5.229L0,83.171Zm0-6.644L127.319,0h5.233L0,76.529Zm0-6.643L115.812,0h5.233L0,69.885ZM0,60.22,104.3,0h5.233L0,63.242Zm0-6.642L92.8,0h5.23L0,56.6Zm0-6.643L81.293,0h5.229L0,49.954ZM0,40.29,69.785,0h5.229L0,43.309Zm0-6.644L58.277,0h5.229L0,36.666ZM0,27,46.769,0H52L0,30.023Zm0-6.644L35.262,0h5.233L0,23.38Zm0-6.642L23.757,0h5.231L0,16.737ZM0,7.073,12.251,0H17.48L0,10.092ZM0,.429.744,0H5.973L0,3.448Z" transform="translate(828 3053) rotate(180)" fill="#ffa114"/>
    <rect id="Rectangle_469" data-name="Rectangle 469" width="218" height="182" rx="3" transform="translate(845.001 2996) rotate(180)" fill="#fff"/>
    <path id="Rectangle_470" data-name="Rectangle 470" d="M55,0H173a3,3,0,0,1,3,3V109a3,3,0,0,1-3,3H54A54,54,0,0,1,0,58V55A55,55,0,0,1,55,0Z" transform="translate(860.001 2961) rotate(180)" fill="#ffa114"/>
  </g>
</svg>
